<?xml version="1.0" standalone="no"?>
<!DOCTYPE svg PUBLIC "-//W3C//DTD SVG 20010904//EN"
 "http://www.w3.org/TR/2001/REC-SVG-20010904/DTD/svg10.dtd">
<svg version="1.0" xmlns="http://www.w3.org/2000/svg"
 width="260.000000pt" height="260.000000pt" viewBox="0 0 260.000000 260.000000"
 preserveAspectRatio="xMidYMid meet">
<metadata>
Created by potrace 1.14, written by Peter Selinger 2001-2017
</metadata>
<g transform="translate(0.000000,260.000000) scale(0.100000,-0.100000)"
fill="#000000" stroke="none">
<path d="M0 1300 l0 -1300 1300 0 1300 0 0 1300 0 1300 -1300 0 -1300 0 0
-1300z m1148 830 c7 0 24 7 38 16 18 13 36 15 72 10 26 -4 72 -8 102 -10 49
-3 84 -11 199 -48 19 -6 69 -12 110 -13 67 -2 141 -23 161 -46 9 -10 50 -5 50
7 0 11 30 24 58 24 6 0 12 -9 12 -21 0 -13 11 -25 33 -34 57 -23 61 -37 24
-73 -46 -45 -70 -51 -128 -33 -34 11 -49 21 -49 34 0 9 -3 18 -7 18 -42 7
-103 -7 -103 -23 0 -6 14 -8 34 -5 39 6 51 0 35 -19 -9 -11 -7 -15 5 -20 10
-4 15 -13 12 -21 -7 -16 31 -33 75 -33 33 0 39 -19 9 -27 -31 -8 -23 -21 11
-17 27 3 29 2 14 -12 -8 -9 -12 -21 -8 -27 7 -13 -3 -5 -94 72 l-63 53 -200
-71 c-110 -39 -202 -71 -205 -71 -3 0 -5 9 -5 20 0 13 -10 24 -27 31 -16 6
-50 21 -78 34 -27 12 -133 58 -235 100 -267 111 -280 117 -280 124 0 11 81 28
140 30 63 2 120 18 120 33 0 6 9 8 20 5 11 -3 34 4 52 17 29 19 36 20 58 9 14
-7 31 -13 38 -13z m-553 -149 c3 -5 2 -12 -3 -15 -5 -3 -9 1 -9 9 0 17 3 19
12 6z m339 -108 c88 -32 124 -49 111 -53 -11 -3 -50 -22 -86 -43 -56 -32 -70
-36 -95 -27 -16 5 -48 14 -71 20 -35 9 -43 15 -43 34 0 13 7 29 15 36 8 7 13
16 10 20 -3 4 1 12 8 18 12 11 15 11 45 13 11 0 7 5 -13 14 -60 28 -10 14 119
-32z m-177 -5 c-3 -8 -6 -5 -6 6 -1 11 2 17 5 13 3 -3 4 -12 1 -19z m353 -58
c5 0 20 -11 34 -24 35 -32 37 -102 4 -116 -13 -5 -17 -9 -10 -9 7 -1 23 6 35
14 20 13 49 21 82 24 6 1 4 5 -4 10 -9 6 -11 16 -6 32 l8 23 13 -26 13 -26 58
15 c32 8 78 16 102 18 24 2 47 8 51 15 4 7 13 9 20 5 7 -4 16 -1 22 6 6 9 11
10 14 3 3 -7 24 -10 56 -7 51 3 108 -13 108 -32 0 -5 5 -3 10 5 9 13 10 13 11
0 0 -8 5 -4 9 10 6 19 8 11 9 -32 1 -32 5 -58 9 -58 5 0 60 -28 123 -62 89
-50 109 -64 90 -66 -19 -3 -21 -6 -10 -13 11 -6 15 -44 17 -166 4 -180 -2
-245 -23 -237 -7 3 -16 0 -20 -6 -6 -9 -10 -9 -16 1 -6 10 -9 6 -9 -13 0 -16
-2 -28 -4 -28 -2 0 -13 -3 -23 -7 -16 -6 -16 -4 2 17 18 21 18 23 2 17 -10 -4
-16 -3 -12 2 3 6 -3 15 -12 21 -15 10 -16 11 -1 6 9 -2 22 3 30 12 9 11 10 14
1 8 -11 -6 -19 22 -15 55 1 3 -36 7 -81 8 -50 1 -84 7 -89 14 -8 12 -12 -48
-9 -113 1 -23 -1 -32 -8 -25 -5 6 -11 31 -12 57 -2 27 -5 52 -9 57 -3 6 -27 5
-60 -3 -30 -8 -49 -14 -42 -15 17 -1 15 -31 -3 -31 -8 0 -15 9 -15 20 0 24 -7
25 -46 5 -22 -10 -42 -12 -79 -6 -28 5 -42 9 -32 10 9 0 17 7 18 14 0 10 2 10
6 0 6 -17 30 -17 36 0 2 6 0 20 -4 29 -6 11 -4 21 5 31 8 7 16 22 19 33 2 10
5 -3 6 -31 1 -52 13 -81 27 -72 5 3 8 68 6 146 -2 115 -6 141 -18 141 -11 0
-14 -17 -14 -80 l0 -80 -35 0 c-30 0 -35 -3 -35 -24 0 -28 -16 -36 -71 -36
-36 0 -39 -2 -39 -29 0 -16 6 -32 13 -34 8 -4 9 -6 0 -6 -6 -1 -19 6 -27 15
-12 12 -16 38 -16 116 0 85 -2 99 -15 94 -10 -4 -15 1 -15 14 0 14 7 20 21 20
11 0 17 -4 14 -10 -4 -6 9 -10 32 -10 25 0 33 3 24 9 -11 7 -10 11 5 20 17 9
15 10 -11 10 -62 -2 -89 -13 -96 -39 -4 -16 -7 -19 -8 -7 -1 11 -9 17 -27 17
-14 0 -23 4 -19 10 4 6 -9 10 -31 10 -31 0 -36 -3 -31 -20 3 -14 0 -20 -10
-20 -10 0 -14 6 -10 20 4 15 0 20 -14 20 -18 0 -19 -9 -19 -154 l0 -155 43 -6
c24 -4 58 -3 77 2 28 7 36 15 38 38 3 21 6 25 13 14 5 -9 9 26 10 96 0 82 3
102 10 80 11 -39 2 -217 -12 -226 -7 -4 -5 -8 5 -12 9 -4 16 -2 16 3 0 6 4 10
9 10 12 0 4 -50 -11 -67 -8 -10 -7 -12 5 -7 9 3 48 -1 86 -10 99 -23 161 -21
168 3 4 15 12 18 46 15 l42 -4 -44 11 c-29 7 -40 14 -31 19 7 4 11 17 8 27 -4
16 -1 19 18 15 13 -2 24 -8 24 -12 0 -10 46 -19 59 -11 5 4 11 24 14 46 l4 40
1 -43 c1 -30 -2 -44 -13 -48 -8 -4 -15 -15 -15 -25 0 -10 -6 -19 -12 -19 -9 0
-8 -4 2 -10 8 -5 32 -10 53 -10 28 0 36 -3 31 -12 -5 -10 -4 -10 6 -1 9 9 19
9 33 2 18 -10 18 -12 -12 -43 -25 -26 -39 -32 -66 -31 -19 2 -35 -1 -35 -6 0
-5 -13 -6 -30 -2 -18 3 -30 1 -30 -5 0 -5 6 -10 13 -9 43 1 47 -3 47 -45 l-1
-43 -20 28 c-20 26 -48 39 -33 15 5 -8 2 -9 -10 -5 -14 6 -17 3 -12 -8 5 -13
0 -15 -27 -11 -19 3 -42 9 -52 12 -14 6 -16 4 -10 -6 6 -10 3 -12 -15 -7 -13
3 -32 1 -42 -4 -10 -5 -24 -6 -31 -2 -6 4 -30 9 -52 10 -94 6 -113 8 -109 14
5 9 -21 19 -47 19 -11 0 -17 -4 -14 -10 3 -5 3 -10 0 -10 -9 0 -109 43 -115
49 -3 4 -12 7 -20 9 -8 2 -31 10 -50 19 -29 14 -45 14 -109 4 -41 -6 -76 -9
-79 -6 -3 3 3 5 13 5 10 0 16 2 13 5 -3 4 -18 3 -33 -1 -20 -5 -23 -9 -13 -15
9 -6 4 -9 -15 -9 -16 0 -26 4 -22 10 3 5 0 7 -8 4 -16 -6 -67 12 -67 24 0 5
15 7 33 6 17 -2 23 -1 12 2 -11 3 -25 13 -32 21 -10 13 -31 14 -146 8 -115 -6
-135 -5 -146 9 -11 13 -11 16 0 16 11 0 11 2 -1 10 -11 7 4 10 48 10 39 0 61
4 57 10 -3 5 -6 109 -6 230 1 182 -2 220 -13 220 -9 0 -18 -19 -24 -52 l-10
-53 -1 52 c0 28 -6 55 -12 59 -6 3 -23 -5 -37 -19 -32 -29 -58 -27 -39 4 6 10
15 19 20 19 4 0 5 -5 2 -11 -4 -6 2 -5 14 3 17 10 21 23 21 61 0 46 2 49 37
63 20 9 49 14 65 12 23 -4 26 -2 15 10 -10 13 -9 14 11 3 13 -7 26 -10 30 -7
3 3 0 6 -6 6 -7 0 -12 4 -12 9 0 6 15 5 36 -1 21 -5 48 -8 60 -5 13 2 24 1 24
-2 0 -4 15 -8 33 -10 45 -4 72 -8 72 -11 0 -2 19 -5 80 -15 22 -3 49 -9 60
-12 11 -4 25 -7 30 -8 6 -1 21 -4 35 -9 22 -6 26 -12 23 -44 l-2 -37 10 42 c8
33 16 44 42 53 l32 12 -25 8 c-41 13 -48 11 -43 -10 4 -14 0 -20 -11 -20 -21
0 -33 29 -16 40 8 5 -2 10 -29 15 -43 7 -50 20 -30 56 6 12 17 18 26 15 8 -3
22 1 30 10 15 14 17 13 29 -13 l12 -28 1 32 c1 51 36 62 116 38 11 -3 2 4 -20
15 -22 11 -32 18 -22 15 10 -3 23 -5 27 -5z m-830 -25 c0 -8 -9 -15 -20 -15
-11 0 -20 -7 -20 -15 0 -9 -9 -15 -22 -14 -16 1 -18 3 -7 6 12 3 15 11 11 25
-3 14 -1 19 6 14 7 -4 20 -2 29 3 23 13 23 14 23 -4z m195 5 c-3 -5 -10 -10
-16 -10 -5 0 -9 5 -9 10 0 6 7 10 16 10 8 0 12 -4 9 -10z m-304 -38 c-7 -2
-18 1 -23 6 -8 8 -4 9 13 5 13 -4 18 -8 10 -11z m545 -24 c-1 -39 -14 -50 -30
-25 -8 14 -8 20 4 27 8 5 11 10 7 10 -11 0 2 20 12 20 4 0 8 -15 7 -32z m1385
-198 c3 40 7 50 13 37 11 -23 -3 -447 -15 -447 -5 0 -9 7 -9 15 0 8 -7 15 -15
15 -13 0 -15 26 -15 170 0 107 4 170 10 170 6 0 11 24 12 53 l1 52 7 -60 6
-60 5 55z m-1807 -25 c-35 -38 -64 -45 -64 -17 0 9 -4 13 -8 7 -12 -17 -32
-16 -32 1 0 10 6 14 14 11 7 -3 19 0 26 6 10 9 11 9 5 -2 -5 -9 -3 -12 6 -9 8
3 14 11 13 19 -1 9 12 15 36 16 l37 2 -33 -34z m31 -35 c-3 -5 -12 -10 -18
-10 -7 0 -6 4 3 10 19 12 23 12 15 0z m-127 -14 c-7 -8 -15 -12 -17 -11 -5 6
10 25 20 25 5 0 4 -6 -3 -14z m2057 5 c38 -8 38 -9 8 -10 -17 0 -33 -5 -35
-10 -1 -5 -15 -13 -30 -16 -23 -6 -28 -4 -28 12 0 35 13 39 85 24z m-2048 -48
c-3 -3 -10 -2 -16 2 -7 4 -7 10 2 20 10 11 13 11 15 -2 2 -8 1 -17 -1 -20z m3
-57 c0 -19 -6 -39 -14 -45 -12 -10 -13 -5 -10 26 5 58 7 63 16 57 4 -3 8 -20
8 -38z m1831 -23 c1 -64 -2 -117 -7 -123 -19 -18 -34 113 -18 154 12 31 24 15
25 -31z m399 -48 c0 -24 6 -35 25 -45 14 -7 25 -22 25 -32 0 -13 4 -17 13 -12
6 4 9 4 5 -1 -4 -4 -3 -14 3 -21 7 -8 7 -14 -1 -19 -5 -3 -10 2 -10 11 0 14
-3 15 -12 6 -15 -15 -32 -16 -23 -2 3 6 2 10 -4 10 -5 0 -12 -6 -14 -12 -4 -8
-6 -7 -6 4 -1 9 -4 23 -7 31 -4 11 2 17 18 20 l23 4 -22 8 c-15 5 -23 17 -26
39 -3 17 -4 -2 -3 -41 2 -40 -1 -73 -6 -73 -4 0 -9 33 -10 73 l-2 72 -6 -75
-6 -75 -3 60 c-1 55 -3 58 -16 41 -15 -19 -15 -19 -15 5 0 18 -2 21 -9 10 -8
-12 -11 -8 -18 15 l-7 29 -7 -35 -6 -35 -2 38 -1 37 65 -1 65 -2 0 -32z
m-2230 -20 c0 -11 -29 -11 -33 -1 -4 10 1 12 14 9 10 -3 19 -7 19 -8z m1220
-41 c0 -8 -4 -13 -9 -9 -6 3 -14 -3 -20 -12 -10 -17 -10 -17 -12 2 0 16 -3 15
-13 -8 -13 -30 -26 -26 -26 9 0 15 7 24 23 27 45 9 57 7 57 -9z m-1222 -100
c-2 -62 0 -74 12 -72 8 1 21 -1 29 -6 10 -6 12 -5 7 2 -5 8 3 12 24 12 18 0
33 -6 37 -15 8 -24 -4 -30 -22 -11 -20 20 -29 21 -22 2 3 -8 -1 -17 -9 -20 -9
-3 -12 -11 -8 -17 5 -8 3 -9 -5 -5 -7 5 -10 13 -8 20 3 6 -4 13 -14 14 -11 1
-27 3 -38 4 -19 2 -21 13 -8 35 4 6 3 14 -2 17 -10 7 -3 44 12 64 7 8 4 12 -8
12 -17 0 -17 1 1 22 10 12 13 18 7 14 -15 -8 -16 -5 -7 19 14 35 26 -14 22
-91z m2299 -6 c-3 -8 -6 -5 -6 6 -1 11 2 17 5 13 3 -3 4 -12 1 -19z m-1207
-13 c0 -8 -4 -15 -10 -15 -5 0 -7 7 -4 15 4 8 8 15 10 15 2 0 4 -7 4 -15z m17
-7 c-3 -8 -6 -5 -6 6 -1 11 2 17 5 13 3 -3 4 -12 1 -19z m186 6 c-2 -7 -13
-10 -24 -7 -27 7 -24 18 5 18 13 0 22 -5 19 -11z m-133 -8 c0 -17 -32 -15 -38
2 -2 7 6 12 17 12 12 0 21 -6 21 -14z m30 -6 c0 -5 -4 -10 -10 -10 -5 0 -10 5
-10 10 0 6 5 10 10 10 6 0 10 -4 10 -10z m17 -12 c-3 -8 -6 -5 -6 6 -1 11 2
17 5 13 3 -3 4 -12 1 -19z m25 -10 c-9 -9 -12 -7 -12 12 0 19 3 21 12 12 9 -9
9 -15 0 -24z m52 7 c19 -15 19 -15 -1 -15 -11 0 -23 7 -27 15 -7 19 3 19 28 0z
m363 -10 c0 -8 -4 -12 -9 -9 -5 3 -6 10 -3 15 9 13 12 11 12 -6z m-160 -1 c-3
-3 -12 -4 -19 -1 -8 3 -5 6 6 6 11 1 17 -2 13 -5z m57 -6 c-3 -4 -11 -5 -19
-1 -21 7 -19 12 4 10 11 0 18 -5 15 -9z m-1402 -15 c11 -12 13 -25 8 -38 -5
-11 -9 -14 -9 -7 -1 7 -6 10 -11 7 -8 -5 -7 -11 1 -21 9 -11 7 -14 -14 -14
-33 0 -40 -12 -22 -36 8 -10 15 -14 15 -8 0 5 -5 15 -12 22 -9 9 -9 12 0 12 7
0 12 -4 12 -10 0 -5 18 -10 41 -10 37 0 39 -1 25 -16 -9 -8 -26 -14 -39 -13
-12 2 -28 -1 -36 -5 -10 -7 -12 -6 -6 4 6 10 3 12 -12 8 -13 -3 -24 1 -32 13
-6 11 -16 19 -22 19 -5 0 -7 -4 -4 -10 3 -5 2 -10 -4 -10 -15 0 -9 40 6 41 33
3 38 6 35 18 -2 9 4 12 18 8 12 -3 29 3 43 14 12 10 17 18 11 19 -13 0 -28 30
-15 30 4 0 15 -8 23 -17z m1558 7 c0 -5 -7 -10 -15 -10 -44 0 9 -39 55 -41 19
0 46 -5 60 -9 21 -7 18 -8 -18 -9 -24 -1 -52 -6 -63 -12 -14 -7 -24 -7 -33 0
-7 6 -16 8 -19 4 -4 -3 -7 -1 -7 6 0 6 -8 11 -17 9 -12 -2 -19 4 -21 19 -3 18
1 21 20 17 13 -2 17 -1 9 2 -11 5 -8 10 10 20 29 16 39 17 39 4z m-1696 -39
c10 -16 -5 -40 -25 -38 -23 2 -26 27 -3 27 8 0 12 5 9 10 -3 6 -2 10 4 10 5 0
12 -4 15 -9z m1534 -30 c-13 -15 -25 -27 -27 -25 -4 4 39 54 47 54 2 0 -7 -13
-20 -29z m-1114 -19 c6 -10 -60 -10 -70 1 -4 4 9 7 29 7 20 0 38 -4 41 -8z
m313 -72 c4 -14 11 -19 23 -15 28 9 90 -25 90 -49 0 -16 2 -18 9 -7 6 9 11 10
15 2 4 -6 16 -11 27 -11 11 0 34 -7 51 -16 l32 -16 -27 -15 c-15 -7 -47 -17
-72 -22 -43 -8 -50 -5 -46 21 0 4 -6 5 -14 2 -8 -4 -15 -1 -15 6 0 6 -5 8 -10
5 -6 -4 -10 -3 -9 2 4 14 -23 62 -37 67 -13 5 -19 -6 -15 -27 1 -4 -10 0 -23
8 -13 9 -27 12 -30 7 -5 -9 18 -28 100 -83 24 -17 44 -37 44 -45 0 -8 -2 -14
-5 -14 -14 0 -55 34 -55 45 0 12 -44 30 -66 27 -6 -1 -17 9 -24 23 -7 14 -17
25 -21 25 -3 0 -15 12 -25 27 l-17 28 26 -18 c33 -21 34 -21 47 4 10 17 9 20
-7 17 -10 -2 -17 2 -15 10 1 6 -4 12 -10 12 -27 0 18 20 45 20 21 0 30 -6 34
-20z m228 -55 c50 -24 78 -42 63 -39 -27 6 -181 84 -163 83 6 0 51 -20 100
-44z m-487 26 c17 -10 11 -57 -6 -53 -6 1 -12 -2 -12 -8 0 -9 -43 -7 -80 5
-27 9 -25 16 13 43 33 23 63 28 85 13z m836 -2 c-4 -7 -44 0 -44 7 0 2 11 3
24 2 14 -1 23 -5 20 -9z m-738 -56 c-3 -4 1 -14 10 -24 16 -18 11 -44 -7 -34
-5 4 -9 0 -9 -8 0 -16 -56 -41 -64 -29 -3 4 -22 7 -43 7 -21 -1 -44 5 -52 13
-13 13 -12 17 8 33 13 11 31 19 41 19 10 0 20 5 22 10 2 6 13 12 26 13 17 1
21 6 16 20 -6 18 -4 18 26 2 18 -9 29 -19 26 -22z m828 31 c9 -3 16 -12 16
-20 0 -17 -26 -8 -34 12 -6 16 -4 17 18 8z m-34 -74 c0 -5 -2 -10 -4 -10 -3 0
-8 5 -11 10 -3 6 -1 10 4 10 6 0 11 -4 11 -10z m-407 -242 c30 -22 28 -54 -3
-82 -37 -32 -70 -40 -93 -22 -29 23 -14 68 31 94 44 26 43 25 65 10z"/>
<path d="M855 1805 c-17 -13 -25 -24 -20 -24 14 -1 61 37 54 43 -2 3 -18 -6
-34 -19z"/>
<path d="M513 1573 c9 -2 25 -2 35 0 9 3 1 5 -18 5 -19 0 -27 -2 -17 -5z"/>
<path d="M1490 1576 c0 -7 112 -38 117 -33 2 3 -17 12 -43 21 -47 16 -74 20
-74 12z"/>
<path d="M578 1563 c7 -3 16 -2 19 1 4 3 -2 6 -13 5 -11 0 -14 -3 -6 -6z"/>
<path d="M1670 1561 l-25 -7 27 -7 27 -7 4 -138 3 -137 0 144 -1 143 55 -6 55
-6 -34 15 c-35 16 -70 18 -111 6z"/>
<path d="M1853 1553 c4 -3 4 -10 1 -15 -4 -7 -2 -8 4 -4 6 4 21 2 32 -4 19
-10 20 -20 20 -162 0 -83 3 -148 7 -144 4 4 9 74 13 155 l5 149 -35 12 c-37
14 -60 19 -47 13z"/>
<path d="M1330 1541 c8 -5 35 -11 60 -15 30 -4 36 -3 20 3 -41 13 -97 22 -80
12z"/>
<path d="M1500 1530 c-12 -8 -12 -10 5 -10 11 0 27 5 35 10 12 8 12 10 -5 10
-11 0 -27 -5 -35 -10z"/>
<path d="M1198 1513 c6 -2 18 -2 25 0 6 3 1 5 -13 5 -14 0 -19 -2 -12 -5z"/>
<path d="M1660 1500 c0 -13 5 -18 15 -14 8 4 15 12 15 20 0 8 -7 14 -15 14 -8
0 -15 -9 -15 -20z"/>
<path d="M1253 1503 c9 -2 23 -2 30 0 6 3 -1 5 -18 5 -16 0 -22 -2 -12 -5z"/>
<path d="M1368 1503 c7 -3 16 -2 19 1 4 3 -2 6 -13 5 -11 0 -14 -3 -6 -6z"/>
<path d="M1375 1490 l-40 -7 35 0 c19 -1 49 3 65 7 27 7 27 8 5 7 -14 0 -43
-3 -65 -7z"/>
<path d="M1578 1483 c6 -2 18 -2 25 0 6 3 1 5 -13 5 -14 0 -19 -2 -12 -5z"/>
<path d="M1288 1473 c7 -3 16 -2 19 1 4 3 -2 6 -13 5 -11 0 -14 -3 -6 -6z"/>
<path d="M1654 1446 c-3 -8 -1 -23 5 -33 9 -15 10 -13 11 15 0 34 -7 42 -16
18z"/>
<path d="M802 1410 c0 -19 2 -27 5 -17 2 9 2 25 0 35 -3 9 -5 1 -5 -18z"/>
<path d="M953 1375 c0 -22 2 -30 4 -17 2 12 2 30 0 40 -3 9 -5 -1 -4 -23z"/>
<path d="M801 1284 c0 -11 3 -14 6 -6 3 7 2 16 -1 19 -3 4 -6 -2 -5 -13z"/>
<path d="M955 1248 c3 -42 -19 -54 -30 -18 -7 21 -49 28 -60 10 -3 -5 -13 -6
-21 -3 -21 8 -34 -14 -34 -54 l0 -33 61 0 c52 0 62 3 66 20 6 23 23 27 23 5 0
-8 5 -15 10 -15 6 0 10 18 10 40 0 22 -4 40 -9 40 -5 0 -12 10 -14 23 -2 12
-3 5 -2 -15z"/>
<path d="M796 1243 c-4 -5 -18 -8 -29 -9 -12 0 -51 -1 -86 -2 -60 -2 -63 -3
-45 -17 18 -14 18 -15 -6 -12 -22 2 -25 -2 -28 -37 l-3 -39 77 6 c42 4 87 7
100 7 20 0 22 6 26 55 1 30 3 55 2 55 0 0 -4 -3 -8 -7z"/>
<path d="M1912 1180 c0 -19 2 -27 5 -17 2 9 2 25 0 35 -3 9 -5 1 -5 -18z"/>
<path d="M958 1133 c6 -2 18 -2 25 0 6 3 1 5 -13 5 -14 0 -19 -2 -12 -5z"/>
<path d="M868 1123 c12 -2 32 -2 45 0 12 2 2 4 -23 4 -25 0 -35 -2 -22 -4z"/>
<path d="M931 1071 c-11 -7 -11 -9 0 -14 8 -3 4 -6 -9 -6 -13 -1 -32 4 -43 9
-11 6 -19 7 -18 3 3 -19 -3 -21 -31 -13 -18 5 -30 5 -30 -1 0 -5 -9 -9 -20 -9
-12 0 -20 -7 -20 -16 0 -12 -6 -15 -21 -11 -16 4 -19 3 -11 -5 10 -10 99 3
229 32 23 6 54 10 70 10 15 0 35 5 43 10 10 6 -6 9 -52 7 -38 -1 -69 1 -70 5
-2 4 -9 4 -17 -1z"/>
<path d="M1145 1060 c3 -5 8 -10 11 -10 2 0 4 5 4 10 0 6 -5 10 -11 10 -5 0
-7 -4 -4 -10z"/>
<path d="M1170 1060 c0 -8 20 -14 85 -26 46 -8 23 6 -34 21 -28 7 -51 9 -51 5z"/>
<path d="M1380 1006 c0 -7 104 -35 109 -30 3 3 -5 7 -17 11 -12 3 -20 9 -17
13 2 3 -14 7 -35 8 -22 1 -40 0 -40 -2z"/>
<path d="M1500 976 c0 -2 7 -7 16 -10 8 -3 12 -2 9 4 -6 10 -25 14 -25 6z"/>
<path d="M265 940 c3 -5 11 -10 16 -10 6 0 7 5 4 10 -3 6 -11 10 -16 10 -6 0
-7 -4 -4 -10z"/>
</g>
</svg>
